<svg width="206" height="214" viewBox="0 0 206 214" fill="none" xmlns="http://www.w3.org/2000/svg">
<path d="M193.831 213.993H11.7431C5.56808 213.993 0.562256 208.987 0.562256 202.812V0.104996H205.011V202.812C205.011 208.987 200.006 213.993 193.831 213.993Z" fill="#202020"/>
<path d="M78.5868 61.7489C73.5868 56.5489 71.0868 50.4489 71.0868 43.4489H31.4868C31.4868 53.4489 33.2868 62.3489 36.8868 70.1489C40.6868 77.9489 45.7868 84.6489 52.1868 90.2489C58.7868 95.6489 66.4868 99.8489 75.2868 102.849C84.0868 105.649 93.5868 107.049 103.787 107.049C114.187 107.049 123.787 105.449 132.587 102.249C141.587 98.8489 149.387 94.0489 155.987 87.8489C162.587 81.6489 167.787 74.0489 171.587 65.0489C175.387 56.0489 177.287 45.8489 177.287 34.4489V0.10498H36.9097C39.4474 4.70762 42.4398 8.85558 45.8868 12.5489C51.6868 18.5489 58.3868 23.2489 65.9868 26.6489C73.7868 29.8489 82.1868 31.4489 91.1868 31.4489C102.987 31.4489 112.087 29.3489 118.487 25.1489C124.887 20.7489 129.487 15.0489 132.287 8.04887H137.687V35.0489C137.687 45.2489 134.487 53.5489 128.087 59.9489C121.887 66.1489 113.387 69.2489 102.587 69.2489C91.7868 69.2489 83.7868 66.7489 78.5868 61.7489Z" fill="white"/>
</svg>
