<svg width="206" height="215" viewBox="0 0 206 215" fill="none" xmlns="http://www.w3.org/2000/svg">
<path d="M194.153 0.233887H12.0658C5.89083 0.233887 0.88501 5.23971 0.88501 11.4147V214.122H205.334V11.4147C205.334 5.23971 200.328 0.233887 194.153 0.233887Z" fill="#202020"/>
<path d="M126.81 156.268C132.01 161.268 134.61 167.268 134.61 174.268H174.21C174.21 164.468 172.31 155.668 168.51 147.868C164.91 139.868 159.81 133.168 153.21 127.768C146.81 122.168 139.21 117.968 130.41 115.168C121.81 112.168 112.51 110.668 102.51 110.668C92.5097 110.668 83.0097 112.368 74.0097 115.768C65.2097 119.168 57.4097 124.068 50.6097 130.468C43.8097 136.668 38.4097 144.268 34.4097 153.268C30.4097 162.268 28.4097 172.268 28.4097 183.268V214.122H167.611C165.339 210.482 162.738 207.197 159.81 204.268C154.21 198.468 147.61 194.068 140.01 191.068C132.41 187.868 124.31 186.268 115.71 186.268C106.11 186.268 97.5097 188.468 89.9097 192.868C82.3097 197.068 76.8097 202.668 73.4097 209.668H68.0097V182.668C68.0097 172.468 71.1097 164.268 77.3097 158.068C83.7097 151.668 92.3097 148.468 103.11 148.468C113.91 148.468 121.81 151.068 126.81 156.268Z" fill="white"/>
</svg>
