<svg width="205" height="215" viewBox="0 0 205 215" fill="none" xmlns="http://www.w3.org/2000/svg">
<path d="M193.554 214.012H11.4665C5.29146 214.012 0.285645 209.007 0.285645 202.832V0.124588H204.735V202.832C204.735 209.007 199.729 214.012 193.554 214.012Z" fill="#202020"/>
<path d="M127.443 0.124573C127.016 6.12885 124.538 11.395 120.01 15.9231C115.01 20.9231 109.11 23.4231 102.31 23.4231C95.5102 23.4231 89.6102 20.9231 84.6102 15.9231C80.0821 11.395 77.6044 6.12885 77.177 0.124573H127.443Z" fill="white"/>
<path d="M140.11 0.124573H179.71V21.6231C179.71 49.6231 172.81 70.9231 159.01 85.5231C145.41 100.123 126.51 107.423 102.31 107.423C78.1102 107.423 59.1102 100.123 45.3102 85.5231C31.7102 70.9231 24.9102 49.6231 24.9102 21.6231V0.124573H64.5102V24.0231C64.5102 31.0231 65.1102 37.4231 66.3102 43.2231C67.5102 49.0231 69.6102 54.0231 72.6102 58.2231C75.6102 62.4231 79.5102 65.7231 84.3102 68.1231C89.1102 70.3231 95.1102 71.4231 102.31 71.4231C109.51 71.4231 115.51 70.3231 120.31 68.1231C125.11 65.7231 129.01 62.4231 132.01 58.2231C135.01 54.0231 137.11 49.0231 138.31 43.2231C139.51 37.4231 140.11 31.0231 140.11 24.0231V0.124573Z" fill="white"/>
</svg>
