<svg width="205" height="215" viewBox="0 0 205 215" fill="none" xmlns="http://www.w3.org/2000/svg">
<path d="M193.554 0.233887H11.4665C5.29146 0.233887 0.285645 5.23971 0.285645 11.4147V214.122H204.735V11.4147C204.735 5.23971 199.729 0.233887 193.554 0.233887Z" fill="#202020"/>
<path d="M77.8401 214.122H126.78C125.707 209.829 123.45 205.963 120.01 202.523C115.01 197.523 109.11 195.023 102.31 195.023C95.5102 195.023 89.6102 197.523 84.6102 202.523C81.17 205.963 78.9133 209.829 77.8401 214.122Z" fill="white"/>
<path d="M140.11 214.122V194.423C140.11 187.823 139.41 181.623 138.01 175.823C136.61 170.023 134.41 165.023 131.41 160.823C128.41 156.623 124.51 153.323 119.71 150.923C114.91 148.323 109.11 147.023 102.31 147.023C95.5102 147.023 89.7102 148.323 84.9102 150.923C80.1102 153.323 76.2102 156.623 73.2102 160.823C70.2102 165.023 68.0102 170.023 66.6102 175.823C65.2102 181.623 64.5102 187.823 64.5102 194.423V214.122H24.9102V196.823C24.9102 169.623 31.7102 148.523 45.3102 133.523C59.1102 118.523 78.1102 111.023 102.31 111.023C126.51 111.023 145.41 118.523 159.01 133.523C172.81 148.523 179.71 169.623 179.71 196.823V214.122H140.11Z" fill="white"/>
</svg>
