<svg width="205" height="215" viewBox="0 0 205 215" fill="none" xmlns="http://www.w3.org/2000/svg">
<path d="M193.617 214.012H11.5292C5.35421 214.012 0.348389 209.007 0.348389 202.832V0.124588H204.797V202.832C204.797 209.007 199.792 214.012 193.617 214.012Z" fill="#202020"/>
<path d="M176.373 103.223V65.4231H68.373V61.8231C68.373 57.6231 68.9729 53.9231 70.173 50.7231C71.573 47.3231 73.9729 44.2231 77.373 41.4231C80.773 38.6231 85.473 36.1231 91.473 33.9231C97.673 31.5231 105.473 29.2231 114.873 27.0231C137.273 21.8231 153.373 13.4231 163.173 1.82309C163.655 1.26389 164.125 0.697716 164.584 0.124573H71.0803C70.6755 0.289452 70.273 0.455627 69.873 0.6231C61.273 4.0231 53.8729 8.4231 47.6729 13.8231C41.6729 19.2231 36.9729 25.8231 33.5729 33.6231C30.3729 41.4231 28.7729 50.8231 28.7729 61.8231V103.223H176.373Z" fill="white"/>
</svg>
