<svg width="205" height="215" viewBox="0 0 205 215" fill="none" xmlns="http://www.w3.org/2000/svg">
<path d="M193.617 0.233887H11.5292C5.35421 0.233887 0.348389 5.23971 0.348389 11.4147V214.122H204.797V11.4147C204.797 5.23971 199.792 0.233887 193.617 0.233887Z" fill="#202020"/>
<path d="M100.082 214.104H170.067C175.218 204.563 178.173 192.655 178.173 180.023V176.423C178.173 168.023 176.573 159.923 173.373 152.123C170.373 144.123 165.673 137.123 159.273 131.123C153.073 125.123 145.273 120.323 135.873 116.723C126.473 112.923 115.473 111.023 102.873 111.023C91.0729 111.023 80.4729 113.023 71.0729 117.023C61.6729 120.823 53.6729 126.123 47.0729 132.923C40.6729 139.523 35.6729 147.323 32.0729 156.323C28.6729 165.123 26.9729 174.423 26.9729 184.223V201.023H66.5729V187.823C66.5729 175.623 69.9729 166.123 76.7729 159.323C83.5729 152.323 92.6729 148.823 104.073 148.823C114.873 148.823 123.273 151.623 129.273 157.223C135.473 162.823 138.573 169.823 138.573 178.223C138.573 182.623 137.973 186.623 136.773 190.223C135.773 193.623 133.773 196.823 130.773 199.823C127.773 202.623 123.673 205.223 118.473 207.623C113.787 209.685 107.404 212.393 100.082 214.104Z" fill="white"/>
</svg>
