<svg width="206" height="215" viewBox="0 0 206 215" fill="none" xmlns="http://www.w3.org/2000/svg">
<path d="M194.176 214.012H12.0883C5.91329 214.012 0.907471 209.007 0.907471 202.832V0.124588H205.357V202.832C205.357 209.007 200.351 214.012 194.176 214.012Z" fill="#202020"/>
<path d="M82.532 0.124573V13.2231H105.932C115.332 13.2231 123.032 15.4231 129.032 19.8231C135.232 24.0231 138.332 30.8231 138.332 40.2231C138.332 49.0231 135.432 56.1231 129.632 61.5231C124.032 66.9231 115.932 69.6231 105.332 69.6231C92.932 69.6231 83.632 66.1231 77.432 59.1231C71.232 52.1231 68.132 43.8231 68.132 34.2231V23.4231H28.532V36.0231C28.532 45.6231 30.332 54.7231 33.932 63.3231C37.532 71.9231 42.632 79.5231 49.232 86.1231C56.032 92.7231 64.232 97.9231 73.832 101.723C83.432 105.523 94.132 107.423 105.932 107.423C117.532 107.423 127.832 105.723 136.832 102.323C145.832 98.9231 153.332 94.3231 159.332 88.5231C165.532 82.5231 170.132 75.5231 173.132 67.5231C176.332 59.5231 177.932 50.8231 177.932 41.4231V37.8231C177.932 28.2231 176.232 19.9231 172.832 12.9231C170.566 8.12372 167.811 3.85755 164.567 0.124573H82.532Z" fill="white"/>
</svg>
