<svg width="205" height="215" viewBox="0 0 205 215" fill="none" xmlns="http://www.w3.org/2000/svg">
<path d="M193.594 214.012H11.5067C5.33175 214.012 0.325928 209.007 0.325928 202.832V0.124588H204.775V202.832C204.775 209.007 199.769 214.012 193.594 214.012Z" fill="#202020"/>
<path d="M30.5509 0.124573V9.64754H95.3509C96.3509 6.24754 98.6509 3.34754 102.251 0.94754C102.653 0.656982 103.069 0.38266 103.499 0.124573H30.5509Z" fill="white"/>
<path d="M180.878 0.124573H130.248C132.995 1.52254 135.462 3.39687 137.651 5.74754C143.051 11.3475 145.751 19.8476 145.751 31.2476C145.751 43.2476 142.051 52.6476 134.651 59.4475C127.451 66.2476 117.551 69.6476 104.951 69.6476C92.3509 69.6476 82.7509 66.2476 76.1509 59.4475C69.7509 52.4476 66.5509 43.6475 66.5509 33.0476V29.4475H26.9509V36.6476C26.9509 46.8476 28.6509 56.3476 32.0509 65.1476C35.6509 73.7476 40.7509 81.2476 47.3509 87.6476C54.1509 93.8476 62.4509 98.7476 72.2509 102.348C82.0509 105.748 93.3509 107.448 106.151 107.448C118.951 107.448 130.251 105.348 140.051 101.148C149.851 96.9475 158.051 91.3476 164.651 84.3476C171.451 77.1476 176.551 68.8476 179.951 59.4475C183.551 50.0476 185.351 40.0476 185.351 29.4475V27.6476C185.351 17.6781 183.86 8.50378 180.878 0.124573Z" fill="white"/>
</svg>
