<svg width="206" height="215" viewBox="0 0 206 215" fill="none" xmlns="http://www.w3.org/2000/svg">
<path d="M194.153 214.012H12.0658C5.89083 214.012 0.88501 209.007 0.88501 202.832V0.124588H205.334V202.832C205.334 209.007 200.328 214.012 194.153 214.012Z" fill="#202020"/>
<path fill-rule="evenodd" clip-rule="evenodd" d="M171.66 0.124573H28.4097V38.1475C28.4097 48.3475 30.3097 57.7475 34.1097 66.3475C38.1097 74.7475 43.4097 82.0475 50.0097 88.2475C56.8097 94.2475 64.7097 98.9476 73.7097 102.348C82.9097 105.748 92.7097 107.448 103.11 107.448C114.51 107.448 124.81 105.648 134.01 102.048C143.21 98.4475 151.01 93.4475 157.41 87.0475C164.01 80.6476 169.01 73.0475 172.41 64.2475C176.01 55.2475 177.81 45.4475 177.81 34.8475V31.2475C177.81 20.8475 176.21 11.5475 173.01 3.34754C172.581 2.24992 172.132 1.17561 171.66 0.124573ZM128.31 60.6475C121.71 66.6475 113.31 69.6475 103.11 69.6475C92.9097 69.6475 84.5097 66.6475 77.9097 60.6475C71.3097 54.4475 68.0097 46.2475 68.0097 36.0475C68.0097 25.8475 71.3097 17.7475 77.9097 11.7475C84.5097 5.54754 92.9097 2.44754 103.11 2.44754C113.31 2.44754 121.71 5.54754 128.31 11.7475C134.91 17.7475 138.21 25.8475 138.21 36.0475C138.21 46.2475 134.91 54.4475 128.31 60.6475Z" fill="white"/>
</svg>
