<svg width="205" height="215" viewBox="0 0 205 215" fill="none" xmlns="http://www.w3.org/2000/svg">
<path d="M193.712 214.012H11.6249C5.44991 214.012 0.444092 209.007 0.444092 202.832V0.124588H204.893V202.832C204.893 209.007 199.887 214.012 193.712 214.012Z" fill="#202020"/>
<path d="M145.16 0.145449H96.4734L58.5685 55.2231C55.3685 60.0231 52.6685 64.2231 50.4685 67.8231C48.2685 71.4231 46.4685 74.8231 45.0685 78.0231C43.8685 81.2231 42.9685 84.4231 42.3685 87.6231C41.7685 90.8231 41.4685 94.4231 41.4685 98.4231V107.423H84.0685V100.223C84.0685 94.8231 85.1685 90.0231 87.3685 85.8231C89.7685 81.4231 92.9685 76.2231 96.9685 70.2231L145.16 0.145449Z" fill="white"/>
</svg>
