<svg width="205" height="214" viewBox="0 0 205 214" fill="none" xmlns="http://www.w3.org/2000/svg">
<path d="M193.271 213.993H11.184C5.00899 213.993 0.00317383 208.987 0.00317383 202.812V0.104996H204.452V202.812C204.452 208.987 199.446 213.993 193.271 213.993Z" fill="#202020"/>
<path fill-rule="evenodd" clip-rule="evenodd" d="M70.4275 103.378C79.8275 106.178 90.4275 107.578 102.228 107.578C113.828 107.578 124.328 106.178 133.728 103.378C143.328 100.378 151.428 96.3778 158.028 91.3778C164.628 86.1778 169.728 79.9778 173.328 72.7778C176.928 65.5778 178.728 57.5778 178.728 48.7778V46.9778C178.728 39.5778 177.628 33.0778 175.428 27.4778C173.428 21.8778 170.628 17.0778 167.028 13.0778C163.628 9.07777 159.728 5.77777 155.328 3.17777C153.396 2.03616 151.425 1.01023 149.416 0.0999756H55.0391C53.03 1.01023 51.0595 2.03616 49.1275 3.17777C44.7275 5.77777 40.7275 9.07777 37.1275 13.0778C33.7275 17.0778 30.9275 21.8778 28.7275 27.4778C26.7275 33.0778 25.7275 39.5778 25.7275 46.9778V48.7778C25.7275 57.5778 27.5275 65.5778 31.1275 72.7778C34.7275 79.7778 39.8275 85.8778 46.4275 91.0778C53.0275 96.2778 61.0275 100.378 70.4275 103.378ZM129.528 61.9778C123.128 67.1778 114.028 69.7778 102.228 69.7778C90.4275 69.7778 81.3275 67.1778 74.9275 61.9778C68.5275 56.5778 65.3275 49.7778 65.3275 41.5778C65.3275 33.3778 68.5275 26.6778 74.9275 21.4778C81.3275 16.0778 90.4275 13.3778 102.228 13.3778C114.028 13.3778 123.128 16.0778 129.528 21.4778C135.928 26.6778 139.128 33.3778 139.128 41.5778C139.128 49.7778 135.928 56.5778 129.528 61.9778Z" fill="white"/>
</svg>
