<svg width="205" height="215" viewBox="0 0 205 215" fill="none" xmlns="http://www.w3.org/2000/svg">
<path d="M193.271 0.214294H11.184C5.00899 0.214294 0.00317383 5.22011 0.00317383 11.3951V214.102H204.452V11.3951C204.452 5.22011 199.446 0.214294 193.271 0.214294Z" fill="#202020"/>
<path fill-rule="evenodd" clip-rule="evenodd" d="M62.9274 214.102V213.778C58.7274 212.178 54.6274 210.078 50.6274 207.478C46.8274 204.878 43.4274 201.778 40.4274 198.178C37.6274 194.378 35.3274 189.978 33.5274 184.978C31.9274 179.778 31.1274 173.978 31.1274 167.578V165.778C31.1274 157.178 33.1274 149.478 37.1274 142.678C41.1274 135.878 46.4274 130.178 53.0274 125.578C59.6274 120.778 67.1274 117.178 75.5274 114.778C84.1274 112.378 93.0274 111.178 102.227 111.178C111.427 111.178 120.227 112.378 128.627 114.778C137.227 117.178 144.827 120.778 151.427 125.578C158.027 130.178 163.327 135.878 167.327 142.678C171.327 149.478 173.327 157.178 173.327 165.778V167.578C173.327 173.978 172.427 179.778 170.627 184.978C169.027 189.978 166.727 194.378 163.727 198.178C160.927 201.778 157.527 204.878 153.527 207.478C149.727 210.078 145.727 212.178 141.527 213.778V214.102H62.9274ZM79.7274 155.878C85.7274 151.278 93.2274 148.978 102.227 148.978C111.227 148.978 118.727 151.278 124.727 155.878C130.727 160.478 133.727 166.278 133.727 173.278C133.727 180.278 130.727 186.078 124.727 190.678C118.727 195.278 111.227 197.578 102.227 197.578C93.2274 197.578 85.7274 195.278 79.7274 190.678C73.7274 186.078 70.7274 180.278 70.7274 173.278C70.7274 166.278 73.7274 160.478 79.7274 155.878Z" fill="white"/>
</svg>
