<svg width="206" height="215" viewBox="0 0 206 215" fill="none" xmlns="http://www.w3.org/2000/svg">
<path d="M193.831 0.214294H11.7431C5.56808 0.214294 0.562256 5.22011 0.562256 11.3951V214.102H205.011V11.3951C205.011 5.22011 200.006 0.214294 193.831 0.214294Z" fill="#202020"/>
<path d="M33.1366 214.102H90.8289C85.7313 212.646 81.2505 210.161 77.3867 206.649C70.7867 200.449 67.4867 192.249 67.4867 182.049C67.4867 171.849 70.7867 163.749 77.3867 157.749C83.9867 151.549 92.3867 148.449 102.587 148.449C112.787 148.449 121.187 151.549 127.787 157.749C134.387 163.749 137.687 171.849 137.687 182.049C137.687 192.249 134.387 200.449 127.787 206.649C123.923 210.161 119.442 212.646 114.345 214.102H177.287V179.949C177.287 169.749 175.387 160.449 171.587 152.049C167.787 143.449 162.587 136.149 155.987 130.149C149.387 123.949 141.487 119.149 132.287 115.749C123.287 112.349 113.587 110.649 103.187 110.649C91.7867 110.649 81.3867 112.449 71.9867 116.049C62.7867 119.649 54.8867 124.649 48.2867 131.049C41.8867 137.249 36.8867 144.749 33.2867 153.549C29.6867 162.149 27.8867 171.449 27.8867 181.449V185.049C27.8867 195.249 29.4867 204.549 32.6867 212.949C32.8341 213.336 32.9841 213.72 33.1366 214.102Z" fill="white"/>
</svg>
