<svg width="205" height="437" viewBox="0 0 205 437" fill="none" xmlns="http://www.w3.org/2000/svg">
<path d="M193.554 0.233887H11.4665C5.29146 0.233887 0.285645 5.23971 0.285645 11.4147V214.122H204.735V11.4147C204.735 5.23971 199.729 0.233887 193.554 0.233887Z" fill="#202020"/>
<path d="M77.8401 214.122H126.78C125.707 209.829 123.45 205.963 120.01 202.523C115.01 197.523 109.11 195.023 102.31 195.023C95.5102 195.023 89.6102 197.523 84.6102 202.523C81.17 205.963 78.9133 209.829 77.8401 214.122Z" fill="white"/>
<path d="M140.11 214.122V194.423C140.11 187.823 139.41 181.623 138.01 175.823C136.61 170.023 134.41 165.023 131.41 160.823C128.41 156.623 124.51 153.323 119.71 150.923C114.91 148.323 109.11 147.023 102.31 147.023C95.5102 147.023 89.7102 148.323 84.9102 150.923C80.1102 153.323 76.2102 156.623 73.2102 160.823C70.2102 165.023 68.0102 170.023 66.6102 175.823C65.2102 181.623 64.5102 187.823 64.5102 194.423V214.122H24.9102V196.823C24.9102 169.623 31.7102 148.523 45.3102 133.523C59.1102 118.523 78.1102 111.023 102.31 111.023C126.51 111.023 145.41 118.523 159.01 133.523C172.81 148.523 179.71 169.623 179.71 196.823V214.122H140.11Z" fill="white"/>
<path d="M193.554 436.012H11.4665C5.29146 436.012 0.285645 431.007 0.285645 424.832V222.125H204.735V424.832C204.735 431.007 199.729 436.012 193.554 436.012Z" fill="#202020"/>
<path d="M127.443 222.125C127.016 228.129 124.538 233.395 120.01 237.923C115.01 242.923 109.11 245.423 102.31 245.423C95.5102 245.423 89.6102 242.923 84.6102 237.923C80.0821 233.395 77.6044 228.129 77.177 222.125H127.443Z" fill="white"/>
<path d="M140.11 222.125H179.71V243.623C179.71 271.623 172.81 292.923 159.01 307.523C145.41 322.123 126.51 329.423 102.31 329.423C78.1102 329.423 59.1102 322.123 45.3102 307.523C31.7102 292.923 24.9102 271.623 24.9102 243.623V222.125H64.5102V246.023C64.5102 253.023 65.1102 259.423 66.3102 265.223C67.5102 271.023 69.6102 276.023 72.6102 280.223C75.6102 284.423 79.5102 287.723 84.3102 290.123C89.1102 292.323 95.1102 293.423 102.31 293.423C109.51 293.423 115.51 292.323 120.31 290.123C125.11 287.723 129.01 284.423 132.01 280.223C135.01 276.023 137.11 271.023 138.31 265.223C139.51 259.423 140.11 253.023 140.11 246.023V222.125Z" fill="white"/>
</svg>
