<svg width="206" height="437" viewBox="0 0 206 437" fill="none" xmlns="http://www.w3.org/2000/svg">
<path d="M194.057 436.012H11.9699C5.79488 436.012 0.789062 431.007 0.789062 424.832V222.125H205.238V424.832C205.238 431.007 200.232 436.012 194.057 436.012Z" fill="#202020"/>
<path d="M90.214 222.125V287.423H30.814V325.223H182.014V287.423H129.814V222.125H90.214Z" fill="white"/>
<path d="M194.057 0.233887H11.9699C5.79488 0.233887 0.789062 5.23971 0.789062 11.4147V214.122H205.238V11.4147C205.238 5.23971 200.232 0.233887 194.057 0.233887Z" fill="#202020"/>
<path d="M90.2139 214.097H129.814V115.223H52.4139L27.2139 203.423V207.023H65.0139L84.8139 135.023H90.2139V214.097Z" fill="white"/>
</svg>
