<svg width="206" height="437" viewBox="0 0 206 437" fill="none" xmlns="http://www.w3.org/2000/svg">
<path d="M194.176 436.012H12.0883C5.91329 436.012 0.907471 431.007 0.907471 424.832V222.125H205.357V424.832C205.357 431.007 200.351 436.012 194.176 436.012Z" fill="#202020"/>
<path d="M82.532 222.125V235.223H105.932C115.332 235.223 123.032 237.423 129.032 241.823C135.232 246.023 138.332 252.823 138.332 262.223C138.332 271.023 135.432 278.123 129.632 283.523C124.032 288.923 115.932 291.623 105.332 291.623C92.932 291.623 83.632 288.123 77.432 281.123C71.232 274.123 68.132 265.823 68.132 256.223V245.423H28.532V258.023C28.532 267.623 30.332 276.723 33.932 285.323C37.532 293.923 42.632 301.523 49.232 308.123C56.032 314.723 64.232 319.923 73.832 323.723C83.432 327.523 94.132 329.423 105.932 329.423C117.532 329.423 127.832 327.723 136.832 324.323C145.832 320.923 153.332 316.323 159.332 310.523C165.532 304.523 170.132 297.523 173.132 289.523C176.332 281.523 177.932 272.823 177.932 263.423V259.823C177.932 250.223 176.232 241.923 172.832 234.923C170.566 230.124 167.811 225.858 164.567 222.125H82.532Z" fill="white"/>
<path d="M194.176 0.233887H12.0883C5.91329 0.233887 0.907471 5.23971 0.907471 11.4147V214.122H205.357V11.4147C205.357 5.23971 200.351 0.233887 194.176 0.233887Z" fill="#202020"/>
<path d="M82.532 214.122H155.88C151.298 210.736 146.149 208.17 140.432 206.423C133.232 204.023 125.932 202.823 118.532 202.823H111.332V197.423L167.132 181.223V115.223H30.332V153.023H134.732V158.423L82.532 172.823V214.122Z" fill="white"/>
</svg>
