<svg width="205" height="437" viewBox="0 0 205 437" fill="none" xmlns="http://www.w3.org/2000/svg">
<path d="M193.679 0.233887H11.5912C5.41622 0.233887 0.4104 5.23971 0.4104 11.4147V214.122H204.859V11.4147C204.859 5.23971 199.854 0.233887 193.679 0.233887Z" fill="#202020"/>
<path d="M153.935 115.199H78.9348L29.217 214.122H69.1523L108.935 134.999H114.335V214.122H153.935V115.199Z" fill="white"/>
<path d="M193.679 436.012H11.5912C5.41622 436.012 0.4104 431.007 0.4104 424.832V222.125H204.859V424.832C204.859 431.007 199.854 436.012 193.679 436.012Z" fill="#202020"/>
<path d="M153.935 222.125H114.335V248.178H54.9349V242.778L65.3191 222.125H25.3854L20.7349 231.378V285.978H114.335V325.578H153.935V285.978H184.535V248.178H153.935V222.125Z" fill="white"/>
</svg>
