<svg width="205" height="437" viewBox="0 0 205 437" fill="none" xmlns="http://www.w3.org/2000/svg">
<path d="M193.594 436.012H11.5067C5.33175 436.012 0.325928 431.007 0.325928 424.832V222.125H204.775V424.832C204.775 431.007 199.769 436.012 193.594 436.012Z" fill="#202020"/>
<path d="M30.5509 222.125V231.648H95.3509C96.3509 228.248 98.6509 225.348 102.251 222.948C102.653 222.657 103.069 222.383 103.499 222.125H30.5509Z" fill="white"/>
<path d="M180.878 222.125H130.248C132.995 223.523 135.462 225.397 137.651 227.748C143.051 233.348 145.751 241.848 145.751 253.248C145.751 265.248 142.051 274.648 134.651 281.448C127.451 288.248 117.551 291.648 104.951 291.648C92.3509 291.648 82.7509 288.248 76.1509 281.448C69.7509 274.448 66.5509 265.648 66.5509 255.048V251.448H26.9509V258.648C26.9509 268.848 28.6509 278.348 32.0509 287.148C35.6509 295.748 40.7509 303.248 47.3509 309.648C54.1509 315.848 62.4509 320.748 72.2509 324.348C82.0509 327.748 93.3509 329.448 106.151 329.448C118.951 329.448 130.251 327.348 140.051 323.148C149.851 318.948 158.051 313.348 164.651 306.348C171.451 299.148 176.551 290.848 179.951 281.448C183.551 272.048 185.351 262.048 185.351 251.448V249.648C185.351 239.678 183.86 230.504 180.878 222.125Z" fill="white"/>
<path d="M193.594 0.233887H11.5067C5.33175 0.233887 0.325928 5.23971 0.325928 11.4147V214.122H204.775V11.4147C204.775 5.23971 199.769 0.233887 193.594 0.233887Z" fill="#202020"/>
<path d="M26.9509 214.122H174.234C171.752 208.872 168.658 204.187 164.951 200.068C159.551 194.068 152.951 189.368 145.151 185.968C137.351 182.568 128.551 180.868 118.751 180.868C105.751 180.868 95.3509 183.768 87.5509 189.568C79.9509 195.168 74.7509 201.868 71.9509 209.668H66.5509V152.668H167.351V114.868H26.9509V214.122Z" fill="white"/>
</svg>
