<svg width="206" height="437" viewBox="0 0 206 437" fill="none" xmlns="http://www.w3.org/2000/svg">
<path d="M194.153 436.012H12.0658C5.89083 436.012 0.88501 431.007 0.88501 424.832V222.125H205.334V424.832C205.334 431.007 200.328 436.012 194.153 436.012Z" fill="#202020"/>
<path fill-rule="evenodd" clip-rule="evenodd" d="M171.66 222.125H28.4097V260.148C28.4097 270.348 30.3097 279.748 34.1097 288.348C38.1097 296.748 43.4097 304.048 50.0097 310.248C56.8097 316.248 64.7097 320.948 73.7097 324.348C82.9097 327.748 92.7097 329.448 103.11 329.448C114.51 329.448 124.81 327.648 134.01 324.048C143.21 320.448 151.01 315.448 157.41 309.048C164.01 302.648 169.01 295.048 172.41 286.248C176.01 277.248 177.81 267.448 177.81 256.848V253.248C177.81 242.848 176.21 233.548 173.01 225.348C172.581 224.25 172.132 223.176 171.66 222.125ZM128.31 282.648C121.71 288.648 113.31 291.648 103.11 291.648C92.9097 291.648 84.5097 288.648 77.9097 282.648C71.3097 276.448 68.0097 268.248 68.0097 258.048C68.0097 247.848 71.3097 239.748 77.9097 233.748C84.5097 227.548 92.9097 224.448 103.11 224.448C113.31 224.448 121.71 227.548 128.31 233.748C134.91 239.748 138.21 247.848 138.21 258.048C138.21 268.248 134.91 276.448 128.31 282.648Z" fill="white"/>
<path d="M194.153 0.233887H12.0658C5.89083 0.233887 0.88501 5.23971 0.88501 11.4147V214.122H205.334V11.4147C205.334 5.23971 200.328 0.233887 194.153 0.233887Z" fill="#202020"/>
<path d="M126.81 156.268C132.01 161.268 134.61 167.268 134.61 174.268H174.21C174.21 164.468 172.31 155.668 168.51 147.868C164.91 139.868 159.81 133.168 153.21 127.768C146.81 122.168 139.21 117.968 130.41 115.168C121.81 112.168 112.51 110.668 102.51 110.668C92.5097 110.668 83.0097 112.368 74.0097 115.768C65.2097 119.168 57.4097 124.068 50.6097 130.468C43.8097 136.668 38.4097 144.268 34.4097 153.268C30.4097 162.268 28.4097 172.268 28.4097 183.268V214.122H167.611C165.339 210.482 162.738 207.197 159.81 204.268C154.21 198.468 147.61 194.068 140.01 191.068C132.41 187.868 124.31 186.268 115.71 186.268C106.11 186.268 97.5097 188.468 89.9097 192.868C82.3097 197.068 76.8097 202.668 73.4097 209.668H68.0097V182.668C68.0097 172.468 71.1097 164.268 77.3097 158.068C83.7097 151.668 92.3097 148.468 103.11 148.468C113.91 148.468 121.81 151.068 126.81 156.268Z" fill="white"/>
</svg>
