<svg width="205" height="437" viewBox="0 0 205 437" fill="none" xmlns="http://www.w3.org/2000/svg">
<path d="M193.712 436.012H11.6249C5.44991 436.012 0.444092 431.007 0.444092 424.832V222.125H204.893V424.832C204.893 431.007 199.887 436.012 193.712 436.012Z" fill="#202020"/>
<path d="M145.16 222.145H96.4734L58.5685 277.223C55.3685 282.023 52.6685 286.223 50.4685 289.823C48.2685 293.423 46.4685 296.823 45.0685 300.023C43.8685 303.223 42.9685 306.423 42.3685 309.623C41.7685 312.823 41.4685 316.423 41.4685 320.423V329.423H84.0685V322.223C84.0685 316.823 85.1685 312.023 87.3685 307.823C89.7685 303.423 92.9685 298.223 96.9685 292.223L145.16 222.145Z" fill="white"/>
<path d="M193.712 0.233887H11.6249C5.44991 0.233887 0.444092 5.23971 0.444092 11.4147V214.122H204.893V11.4147C204.893 5.23971 199.887 0.233887 193.712 0.233887Z" fill="#202020"/>
<path d="M172.869 119.423H25.2686V157.223H136.869V162.623L101.682 214.122H150.373L172.869 181.223V119.423Z" fill="white"/>
</svg>
