<svg width="205" height="436" viewBox="0 0 205 436" fill="none" xmlns="http://www.w3.org/2000/svg">
<path d="M193.271 435.993H11.184C5.00899 435.993 0.00317383 430.987 0.00317383 424.812V222.105H204.452V424.812C204.452 430.987 199.446 435.993 193.271 435.993Z" fill="#202020"/>
<path fill-rule="evenodd" clip-rule="evenodd" d="M70.4275 325.378C79.8275 328.178 90.4275 329.578 102.228 329.578C113.828 329.578 124.328 328.178 133.728 325.378C143.328 322.378 151.428 318.378 158.028 313.378C164.628 308.178 169.728 301.978 173.328 294.778C176.928 287.578 178.728 279.578 178.728 270.778V268.978C178.728 261.578 177.628 255.078 175.428 249.478C173.428 243.878 170.628 239.078 167.028 235.078C163.628 231.078 159.728 227.778 155.328 225.178C153.396 224.036 151.425 223.01 149.416 222.1H55.0391C53.03 223.01 51.0595 224.036 49.1275 225.178C44.7275 227.778 40.7275 231.078 37.1275 235.078C33.7275 239.078 30.9275 243.878 28.7275 249.478C26.7275 255.078 25.7275 261.578 25.7275 268.978V270.778C25.7275 279.578 27.5275 287.578 31.1275 294.778C34.7275 301.778 39.8275 307.878 46.4275 313.078C53.0275 318.278 61.0275 322.378 70.4275 325.378ZM129.528 283.978C123.128 289.178 114.028 291.778 102.228 291.778C90.4275 291.778 81.3275 289.178 74.9275 283.978C68.5275 278.578 65.3275 271.778 65.3275 263.578C65.3275 255.378 68.5275 248.678 74.9275 243.478C81.3275 238.078 90.4275 235.378 102.228 235.378C114.028 235.378 123.128 238.078 129.528 243.478C135.928 248.678 139.128 255.378 139.128 263.578C139.128 271.778 135.928 278.578 129.528 283.978Z" fill="white"/>
<path d="M193.271 0.214294H11.184C5.00899 0.214294 0.00317383 5.22011 0.00317383 11.3951V214.102H204.452V11.3951C204.452 5.22011 199.446 0.214294 193.271 0.214294Z" fill="#202020"/>
<path fill-rule="evenodd" clip-rule="evenodd" d="M62.9274 214.102V213.778C58.7274 212.178 54.6274 210.078 50.6274 207.478C46.8274 204.878 43.4274 201.778 40.4274 198.178C37.6274 194.378 35.3274 189.978 33.5274 184.978C31.9274 179.778 31.1274 173.978 31.1274 167.578V165.778C31.1274 157.178 33.1274 149.478 37.1274 142.678C41.1274 135.878 46.4274 130.178 53.0274 125.578C59.6274 120.778 67.1274 117.178 75.5274 114.778C84.1274 112.378 93.0274 111.178 102.227 111.178C111.427 111.178 120.227 112.378 128.627 114.778C137.227 117.178 144.827 120.778 151.427 125.578C158.027 130.178 163.327 135.878 167.327 142.678C171.327 149.478 173.327 157.178 173.327 165.778V167.578C173.327 173.978 172.427 179.778 170.627 184.978C169.027 189.978 166.727 194.378 163.727 198.178C160.927 201.778 157.527 204.878 153.527 207.478C149.727 210.078 145.727 212.178 141.527 213.778V214.102H62.9274ZM79.7274 155.878C85.7274 151.278 93.2274 148.978 102.227 148.978C111.227 148.978 118.727 151.278 124.727 155.878C130.727 160.478 133.727 166.278 133.727 173.278C133.727 180.278 130.727 186.078 124.727 190.678C118.727 195.278 111.227 197.578 102.227 197.578C93.2274 197.578 85.7274 195.278 79.7274 190.678C73.7274 186.078 70.7274 180.278 70.7274 173.278C70.7274 166.278 73.7274 160.478 79.7274 155.878Z" fill="white"/>
</svg>
