<svg width="206" height="436" viewBox="0 0 206 436" fill="none" xmlns="http://www.w3.org/2000/svg">
<path d="M193.831 435.993H11.7431C5.56808 435.993 0.562256 430.987 0.562256 424.812V222.105H205.011V424.812C205.011 430.987 200.006 435.993 193.831 435.993Z" fill="#202020"/>
<path d="M78.5868 283.749C73.5868 278.549 71.0868 272.449 71.0868 265.449H31.4868C31.4868 275.449 33.2868 284.349 36.8868 292.149C40.6868 299.949 45.7868 306.649 52.1868 312.249C58.7868 317.649 66.4868 321.849 75.2868 324.849C84.0868 327.649 93.5868 329.049 103.787 329.049C114.187 329.049 123.787 327.449 132.587 324.249C141.587 320.849 149.387 316.049 155.987 309.849C162.587 303.649 167.787 296.049 171.587 287.049C175.387 278.049 177.287 267.849 177.287 256.449V222.105H36.9097C39.4474 226.708 42.4398 230.856 45.8868 234.549C51.6868 240.549 58.3868 245.249 65.9868 248.649C73.7868 251.849 82.1868 253.449 91.1868 253.449C102.987 253.449 112.087 251.349 118.487 247.149C124.887 242.749 129.487 237.049 132.287 230.049H137.687V257.049C137.687 267.249 134.487 275.549 128.087 281.949C121.887 288.149 113.387 291.249 102.587 291.249C91.7868 291.249 83.7868 288.749 78.5868 283.749Z" fill="white"/>
<path d="M193.831 0.214294H11.7431C5.56808 0.214294 0.562256 5.22011 0.562256 11.3951V214.102H205.011V11.3951C205.011 5.22011 200.006 0.214294 193.831 0.214294Z" fill="#202020"/>
<path d="M33.1366 214.102H90.8289C85.7313 212.646 81.2505 210.161 77.3867 206.649C70.7867 200.449 67.4867 192.249 67.4867 182.049C67.4867 171.849 70.7867 163.749 77.3867 157.749C83.9867 151.549 92.3867 148.449 102.587 148.449C112.787 148.449 121.187 151.549 127.787 157.749C134.387 163.749 137.687 171.849 137.687 182.049C137.687 192.249 134.387 200.449 127.787 206.649C123.923 210.161 119.442 212.646 114.345 214.102H177.287V179.949C177.287 169.749 175.387 160.449 171.587 152.049C167.787 143.449 162.587 136.149 155.987 130.149C149.387 123.949 141.487 119.149 132.287 115.749C123.287 112.349 113.587 110.649 103.187 110.649C91.7867 110.649 81.3867 112.449 71.9867 116.049C62.7867 119.649 54.8867 124.649 48.2867 131.049C41.8867 137.249 36.8867 144.749 33.2867 153.549C29.6867 162.149 27.8867 171.449 27.8867 181.449V185.049C27.8867 195.249 29.4867 204.549 32.6867 212.949C32.8341 213.336 32.9841 213.72 33.1366 214.102Z" fill="white"/>
</svg>
